<svg xmlns="http://www.w3.org/2000/svg" viewBox="0 0 459.31 125.47"><defs><style>.cls-1,.cls-4,.cls-5{fill:#333;}.cls-2{fill:#01a0c6;}.cls-3{fill:#fff;stroke:#333;stroke-miterlimit:10;stroke-width:0.5px;}.cls-4{font-size:3.15px;}.cls-4,.cls-5{font-family:Lufga-Medium, Lufga;font-weight:500;}.cls-5{font-size:87.3px;}</style></defs><g id="Calque_2" data-name="Calque 2"><g id="Calque_1-2" data-name="Calque 1"><path class="cls-1" d="M80.62,18.14A38.39,38.39,0,1,0,36,74.84a.07.07,0,0,0,.08,0,38.18,38.18,0,0,0-5.2-25.43c-6-9.82-3-22.8,6.94-28.58a20.37,20.37,0,0,1,27.5,6.85.08.08,0,0,0,.08,0L80.6,18.22A.08.08,0,0,0,80.62,18.14Z"/><path class="cls-2" d="M44.66,32.49s-.08,0-.08,0A38.19,38.19,0,0,0,49.77,58c6,9.82,3,22.79-6.93,28.57a20.35,20.35,0,0,1-27.5-6.84.06.06,0,0,0-.08,0L0,89.1a.07.07,0,0,0,0,.09,38.38,38.38,0,1,0,44.65-56.7Z"/><circle class="cls-3" cx="79.89" cy="24.41" r="1.95"/><text class="cls-4" transform="translate(78.95 25.47)">R</text><text class="cls-5" transform="translate(77.66 104.71)">chedule</text></g></g></svg>