<svg xmlns="http://www.w3.org/2000/svg" viewBox="0 0 37.38 48.88"><defs><style>.cls-1,.cls-4{fill:#fff;}.cls-2{fill:#01a0c6;}.cls-3{fill:none;stroke:#fff;stroke-miterlimit:10;stroke-width:0.2px;}.cls-4{font-size:1.43px;font-family:Lufga-Medium, Lufga;font-weight:500;}</style></defs><g id="Calque_2" data-name="Calque 2"><g id="Calque_1-2" data-name="Calque 1"><path class="cls-1" d="M36.72,8.26A17.49,17.49,0,1,0,16.38,34.09s0,0,0,0a17.4,17.4,0,0,0-2.37-11.58,9.4,9.4,0,0,1,3.16-13,9.28,9.28,0,0,1,12.53,3.11s0,0,0,0L36.71,8.3S36.73,8.27,36.72,8.26Z"/><path class="cls-2" d="M20.34,14.8s0,0,0,0A17.44,17.44,0,0,0,22.67,26.4a9.4,9.4,0,0,1-3.16,13A9.26,9.26,0,0,1,7,36.3H7L0,40.59s0,0,0,0A17.48,17.48,0,1,0,20.34,14.8Z"/><circle class="cls-3" cx="36.39" cy="11.12" r="0.89"/><text class="cls-4" transform="translate(35.96 11.6)">R</text></g></g></svg>